<svg width="1000" height="1000" viewBox="0 0 1000 1000" fill="none" xmlns="http://www.w3.org/2000/svg">
<rect width="1000" height="1000" rx="500" fill="white"/>
<g style="mix-blend-mode:multiply">
<circle cx="500" cy="500" r="500" fill="url(#paint0_radial_92_871)"/>
<animateTransform attributeType="xml" attributeName="transform" type="rotate" from="360 500 500" to="0 500 500" dur="17s" additive="sum" repeatCount="indefinite" />
</g>
<g style="mix-blend-mode:multiply">
<circle cx="500" cy="500" r="500" fill="url(#paint1_radial_92_871)"/>
<animateTransform attributeType="xml" attributeName="transform" type="rotate" from="360 500 500" to="0 500 500" dur="13s" additive="sum" repeatCount="indefinite" />
</g>
<g style="mix-blend-mode:multiply">
<circle cx="500" cy="500" r="500" fill="url(#paint2_radial_92_871)"/>
<animateTransform attributeType="xml" attributeName="transform" type="rotate" from="360 500 500" to="0 500 500" dur="15s" additive="sum" repeatCount="indefinite" />
</g>
<g style="mix-blend-mode:difference">
<path fill-rule="evenodd" clip-rule="evenodd" d="M500 880C709.868 880 880 709.868 880 500C880 290.132 709.868 120 500 120C290.132 120 120 290.132 120 500C120 709.868 290.132 880 500 880ZM500 900C720.914 900 900 720.914 900 500C900 279.086 720.914 100 500 100C279.086 100 100 279.086 100 500C100 720.914 279.086 900 500 900Z" fill="white"/>
</g>
<defs>
<radialGradient id="paint0_radial_92_871" cx="0" cy="0" r="1" gradientUnits="userSpaceOnUse" gradientTransform="translate(500) rotate(90) scale(1000)">
<stop stop-color="#FF00FF"/>
<stop offset="1" stop-color="#FF00FF" stop-opacity="0"/>
</radialGradient>
<radialGradient id="paint1_radial_92_871" cx="0" cy="0" r="1" gradientUnits="userSpaceOnUse" gradientTransform="translate(500) rotate(90) scale(1000)">
<stop stop-color="#00FFFF"/>
<stop offset="1" stop-color="#00FFFF" stop-opacity="0"/>
</radialGradient>
<radialGradient id="paint2_radial_92_871" cx="0" cy="0" r="1" gradientUnits="userSpaceOnUse" gradientTransform="translate(500) rotate(90) scale(1000)">
<stop stop-color="#FFFF00"/>
<stop offset="1" stop-color="#FFFF00" stop-opacity="0.05"/>
</radialGradient>
</defs>
</svg>
