<svg width="1000" height="1000" viewBox="0 0 1000 1000" fill="none" xmlns="http://www.w3.org/2000/svg">
<rect width="1000" height="1000" rx="500" fill="white"/>
<g style="mix-blend-mode:multiply">
<circle cx="500" cy="500" r="500" fill="url(#paint0_radial_92_871)"/>
<animateTransform attributeType="xml" attributeName="transform" type="rotate" from="360 500 500" to="0 500 500" dur="17s" additive="sum" repeatCount="indefinite" />
</g>
<g style="mix-blend-mode:multiply">
<circle cx="500" cy="500" r="500" fill="url(#paint1_radial_92_871)"/>
<animateTransform attributeType="xml" attributeName="transform" type="rotate" from="90 500 500" to="-270 500 500" dur="13s" additive="sum" repeatCount="indefinite" />
</g>
<g style="mix-blend-mode:multiply">
<circle cx="500" cy="500" r="500" fill="url(#paint2_radial_92_871)"/>
<animateTransform attributeType="xml" attributeName="transform" type="rotate" from="180 500 500" to="-180 500 500" dur="15s" additive="sum" repeatCount="indefinite" />
</g>
<g style="mix-blend-mode:difference">
<path fill-rule="evenodd" clip-rule="evenodd" d="M960 500C960 754.051 754.051 960 500 960C245.949 960 40 754.051 40 500C40 245.949 245.949 40 500 40C754.051 40 960 245.949 960 500ZM980 500C980 765.097 765.097 980 500 980C234.903 980 20 765.097 20 500C20 234.903 234.903 20 500 20C765.097 20 980 234.903 980 500ZM920 500C920 731.96 731.96 920 500 920C268.04 920 80 731.96 80 500C80 268.04 268.04 80 500 80C731.96 80 920 268.04 920 500ZM940 500C940 743.005 743.005 940 500 940C256.995 940 60 743.005 60 500C60 256.995 256.995 60 500 60C743.005 60 940 256.995 940 500Z" fill="white"/>
</g>
<defs>
<radialGradient id="paint0_radial_92_871" cx="0" cy="0" r="1" gradientUnits="userSpaceOnUse" gradientTransform="translate(500) rotate(90) scale(1000)">
<stop stop-color="#2200FF"/>
<stop offset="1" stop-color="#2200FF" stop-opacity="0"/>
</radialGradient>
<radialGradient id="paint1_radial_92_871" cx="0" cy="0" r="1" gradientUnits="userSpaceOnUse" gradientTransform="translate(500) rotate(90) scale(1000)">
<stop stop-color="#0022FF"/>
<stop offset="1" stop-color="#0022FF" stop-opacity="0"/>
</radialGradient>
<radialGradient id="paint2_radial_92_871" cx="0" cy="0" r="1" gradientUnits="userSpaceOnUse" gradientTransform="translate(500) rotate(90) scale(1000)">
<stop stop-color="#FFFF00"/>
<stop offset="1" stop-color="#FFFF00" stop-opacity="0.05"/>
</radialGradient>
</defs>
</svg>
