<svg width="1000" height="1000" viewBox="0 0 1000 1000" fill="none" xmlns="http://www.w3.org/2000/svg">
<rect width="1000" height="1000" rx="500" fill="white"/>
<g style="mix-blend-mode:multiply">
<circle cx="500" cy="500" r="500" fill="url(#paint0_radial_92_871)"/>
<animateTransform attributeType="xml" attributeName="transform" type="rotate" from="270 500 500" to="-90 500 500" dur="17s" additive="sum" repeatCount="indefinite" />
</g>
<g style="mix-blend-mode:multiply">
<circle cx="500" cy="500" r="500" fill="url(#paint1_radial_92_871)"/>
<animateTransform attributeType="xml" attributeName="transform" type="rotate" from="270 500 500" to="-90 500 500" dur="13s" additive="sum" repeatCount="indefinite" />
</g>
<g style="mix-blend-mode:multiply">
<circle cx="500" cy="500" r="500" fill="url(#paint2_radial_92_871)"/>
<animateTransform attributeType="xml" attributeName="transform" type="rotate" from="360 500 500" to="0 500 500" dur="15s" additive="sum" repeatCount="indefinite" />
</g>
<g style="mix-blend-mode:difference">
<path fill-rule="evenodd" clip-rule="evenodd" d="M499 799C664.685 799 799 664.685 799 499C799 333.315 664.685 199 499 199C333.315 199 199 333.315 199 499C199 664.685 333.315 799 499 799ZM499 899C719.914 899 899 719.914 899 499C899 278.086 719.914 99 499 99C278.086 99 99 278.086 99 499C99 719.914 278.086 899 499 899Z" fill="white"/>
</g>
<defs>
<radialGradient id="paint0_radial_92_871" cx="0" cy="0" r="1" gradientUnits="userSpaceOnUse" gradientTransform="translate(500) rotate(90) scale(1000)">
<stop stop-color="#FF2200"/>
<stop offset="1" stop-color="#FF2200" stop-opacity="0"/>
</radialGradient>
<radialGradient id="paint1_radial_92_871" cx="0" cy="0" r="1" gradientUnits="userSpaceOnUse" gradientTransform="translate(500) rotate(90) scale(1000)">
<stop stop-color="#CC00FF"/>
<stop offset="1" stop-color="#CC00FF" stop-opacity="0"/>
</radialGradient>
<radialGradient id="paint2_radial_92_871" cx="0" cy="0" r="1" gradientUnits="userSpaceOnUse" gradientTransform="translate(500) rotate(90) scale(1000)">
<stop stop-color="#FFFF00"/>
<stop offset="1" stop-color="#FFFF00" stop-opacity="0.05"/>
</radialGradient>
</defs>
</svg>
