<svg viewBox="0 0 1000 1000" fill="none" xmlns="http://www.w3.org/2000/svg">
<rect width="1000" height="1000" rx="500" fill="white"/>
<g style="mix-blend-mode:multiply">
<circle cx="500" cy="500" r="500" fill="url(#paint0_radial_92_871)"/>
<animateTransform attributeType="xml" attributeName="transform" type="rotate" from="360 500 500" to="0 500 500" dur="17s" additive="sum" repeatCount="indefinite" />
</g>
<g style="mix-blend-mode:multiply">
<circle cx="500" cy="500" r="500" fill="url(#paint1_radial_92_871)"/>
<animateTransform attributeType="xml" attributeName="transform" type="rotate" from="360 500 500" to="0 500 500" dur="13s" additive="sum" repeatCount="indefinite" />
</g>
<g style="mix-blend-mode:multiply">
<circle cx="500" cy="500" r="500" fill="url(#paint2_radial_92_871)"/>
<animateTransform attributeType="xml" attributeName="transform" type="rotate" from="360 500 500" to="0 500 500" dur="15s" additive="sum" repeatCount="indefinite" />
</g>
<g style="mix-blend-mode:difference">
<path fill-rule="evenodd" clip-rule="evenodd" d="M995 500C995 773.381 773.381 995 500 995C226.619 995 5 773.381 5 500C5 226.619 226.619 5 500 5C773.381 5 995 226.619 995 500ZM1000 500C1000 776.142 776.142 1000 500 1000C223.858 1000 0 776.142 0 500C0 223.858 223.858 0 500 0C776.142 0 1000 223.858 1000 500ZM500 975C762.335 975 975 762.335 975 500C975 237.665 762.335 25 500 25C237.665 25 25 237.665 25 500C25 762.335 237.665 975 500 975ZM500 980C765.097 980 980 765.097 980 500C980 234.903 765.097 20 500 20C234.903 20 20 234.903 20 500C20 765.097 234.903 980 500 980ZM500 790C660.163 790 790 660.163 790 500C790 339.837 660.163 210 500 210C339.837 210 210 339.837 210 500C210 660.163 339.837 790 500 790ZM500 840C687.777 840 840 687.777 840 500C840 312.223 687.777 160 500 160C312.223 160 160 312.223 160 500C160 687.777 312.223 840 500 840ZM500 955C751.29 955 955 751.29 955 500C955 248.71 751.29 45 500 45C248.71 45 45 248.71 45 500C45 751.29 248.71 955 500 955ZM500 960C754.051 960 960 754.051 960 500C960 245.949 754.051 40 500 40C245.949 40 40 245.949 40 500C40 754.051 245.949 960 500 960ZM935 500C935 740.244 740.244 935 500 935C259.756 935 65 740.244 65 500C65 259.756 259.756 65 500 65C740.244 65 935 259.756 935 500ZM940 500C940 743.005 743.005 940 500 940C256.995 940 60 743.005 60 500C60 256.995 256.995 60 500 60C743.005 60 940 256.995 940 500ZM500 915C729.198 915 915 729.198 915 500C915 270.802 729.198 85 500 85C270.802 85 85 270.802 85 500C85 729.198 270.802 915 500 915ZM500 920C731.96 920 920 731.96 920 500C920 268.04 731.96 80 500 80C268.04 80 80 268.04 80 500C80 731.96 268.04 920 500 920ZM895 500C895 718.152 718.152 895 500 895C281.848 895 105 718.152 105 500C105 281.848 281.848 105 500 105C718.152 105 895 281.848 895 500ZM900 500C900 720.914 720.914 900 500 900C279.086 900 100 720.914 100 500C100 279.086 279.086 100 500 100C720.914 100 900 279.086 900 500ZM500 875C707.107 875 875 707.107 875 500C875 292.893 707.107 125 500 125C292.893 125 125 292.893 125 500C125 707.107 292.893 875 500 875ZM500 880C709.868 880 880 709.868 880 500C880 290.132 709.868 120 500 120C290.132 120 120 290.132 120 500C120 709.868 290.132 880 500 880ZM855 500C855 696.061 696.061 855 500 855C303.939 855 145 696.061 145 500C145 303.939 303.939 145 500 145C696.061 145 855 303.939 855 500ZM860 500C860 698.823 698.823 860 500 860C301.177 860 140 698.823 140 500C140 301.177 301.177 140 500 140C698.823 140 860 301.177 860 500Z" fill="white"/>
</g>
<defs>
<radialGradient id="paint0_radial_92_871" cx="0" cy="0" r="1" gradientUnits="userSpaceOnUse" gradientTransform="translate(500) rotate(90) scale(1000)">
<stop stop-color="#FF00FF"/>
<stop offset="1" stop-color="#FF00FF" stop-opacity="0"/>
</radialGradient>
<radialGradient id="paint1_radial_92_871" cx="0" cy="0" r="1" gradientUnits="userSpaceOnUse" gradientTransform="translate(500) rotate(90) scale(1000)">
<stop stop-color="#00FFFF"/>
<stop offset="1" stop-color="#00FFFF" stop-opacity="0"/>
</radialGradient>
<radialGradient id="paint2_radial_92_871" cx="0" cy="0" r="1" gradientUnits="userSpaceOnUse" gradientTransform="translate(500) rotate(90) scale(1000)">
<stop stop-color="#FFFF00"/>
<stop offset="1" stop-color="#FFFF00" stop-opacity="0.05"/>
</radialGradient>
</defs>
</svg>
